<?xml version="1.0" encoding="UTF-8" standalone="no"?>
<!DOCTYPE svg PUBLIC "-//W3C//DTD SVG 1.1//EN" "http://www.w3.org/Graphics/SVG/1.1/DTD/svg11.dtd">
<svg version="1.1" xmlns="http://www.w3.org/2000/svg" xmlns:xlink="http://www.w3.org/1999/xlink" preserveAspectRatio="xMidYMid meet" viewBox="0 0 640 640" width="640" height="640"><defs><path d="M175.23 174.51C175.23 174.51 153.08 174.9 131.33 170.19C131.33 170.19 114.18 167.39 108.4 178.43C103.84 187.15 99.92 199.73 115.44 221.86C119.04 226.99 128.99 236.53 141.04 234.96C141.04 234.96 92.44 298.02 91.05 377.06C90.14 429.34 98.43 475.73 137.72 531.97C170.12 578.34 224.03 608.45 268.36 612.81C422 627.9 456.52 575.7 472.84 551.37C472.84 551.37 568.42 564.71 573.08 469.71C573.08 464.14 573.08 419.54 573.08 413.97C573.08 413.97 611.15 390.41 573.08 366.86C573.08 366.86 566.86 328.39 526.45 308.76C526.45 308.76 519.46 279.71 487.6 285.99C487.6 285.99 491.49 273.43 494.6 264.8C494.6 264.8 510.14 223.97 454.19 218.47C453 218.37 447.04 217.84 436.32 216.9C427.93 209.84 423.26 205.91 422.33 205.13C422.33 205.13 460.41 190.99 459.63 170.58C459.63 170.58 468.96 141.53 413.01 150.17C413.01 150.17 405.22 150.43 385.81 139.96C368.32 130.52 332.19 115.62 311.21 167.44C311.21 167.44 272.36 166.65 265.37 176.08C265.37 176.08 240.5 153.31 220.3 147.03C211.28 152.52 203.98 137.61 175.23 174.51Z" id="bXnSwpjZZ"></path><path d="M158.28 426.04C158.28 426.04 168.47 386.85 204.52 371.96C204.52 371.96 133.98 443.24 204.52 522.45C215.37 534.63 235.14 548.78 265.38 545.95C283.52 544.25 308.86 533.61 312.69 497.37C316.7 459.46 318.18 368.43 287.61 344.92C285.89 346.14 272.09 355.85 270.37 357.07C270.37 357.07 285.49 255.1 389.51 357.07C401.35 368.68 419.49 387.65 446.47 387.65C476.78 387.65 485.92 364.91 485.92 364.91C485.92 364.91 507.55 385.82 524.85 379.54C530.62 377.45 535.11 377.25 539.23 365.69C539.23 365.69 547.06 331.99 513.36 317.1C513.36 317.1 503.95 296.72 474.17 299.07C474.17 297.11 474.17 281.43 474.17 279.47C474.17 279.47 510.22 230.88 432.62 232.44C432.62 232.44 379.32 176.79 311.91 183.85C308.46 184.24 280.87 187.37 277.42 187.77C277.42 187.77 294.67 201.09 307.21 202.66C307.21 202.66 285.26 208.93 259.39 190.12C256.65 187.92 234.7 170.37 231.96 168.17C231.96 168.17 208.44 140.74 184.93 176.79C184.93 176.79 158.47 210.5 139.95 205.01C139.95 205.01 151.18 198.02 158.28 186.2C158.28 186.2 140.96 186.37 134.76 183.85C129.06 181.53 113.01 176.21 115.75 199.52C115.75 199.52 125.36 241.07 179.44 221.47C179.44 221.47 221.77 199.52 228.04 189.33C228.04 189.33 246.07 208.15 227.26 234.8C227.26 234.8 227.26 214.42 219.42 213.63C217.12 214.89 205.62 221.16 184.93 232.44C131.63 275.81 122.74 340.35 158.28 426.04Z" id="aF857t2xV"></path><path d="M313.48 550.66C313.48 550.66 465.09 562.38 519.63 478.82C518.57 499.07 499.77 527.94 485.66 536.3C485.66 536.3 518.77 539.54 540.02 516.08C554.11 500.51 559.03 472.74 559.87 426.04C559.87 426.04 546.03 445.07 476.78 428.79C455.11 423.69 418.12 420.17 389.12 452.46C389.12 452.46 410.41 403.05 476.26 416.12C476.26 416.12 557.77 434.93 577.11 396.78C577.11 396.78 581.81 382.67 568.23 377.45C568.23 377.45 547.03 416.63 459.01 403.05C434 399.2 388.99 412.46 370.18 445.9C365.24 454.68 350.84 473.07 336.21 469.42C331.66 485.67 338.17 531.47 313.48 550.66Z" id="a2T3CLrhYl"></path><path d="M402.05 260.66C402.05 260.66 401.27 230.87 381.67 222.25C381.67 222.25 435.76 241.85 412.63 285.35C415.03 285.9 434.15 290.29 436.54 290.84C436.54 290.84 395.32 298.67 384.97 317.09C384.97 317.09 267.23 250.47 239.8 360.2C234.85 379.97 238.23 404.88 244.5 444.85C244.5 444.85 204.52 371.96 241.71 319.45C250.8 306.61 268.8 286.53 296.23 288.09C296.23 288.09 285.26 270.85 295.45 250.47C295.45 250.47 330.72 253.21 342.87 264.58C342.87 264.58 294.67 214.02 240.58 250.08C240.58 250.08 260.39 208.41 295.66 218.81C305.25 221.64 324.3 234.64 333.4 240.76C347.13 244.74 397.35 286.53 402.05 260.66Z" id="b1OwKQ6KRF"></path><path d="M335.01 451.65C335.01 451.65 347.88 457.13 358.16 439.63C363.96 429.74 391.08 392.6 408.85 397.83C408.85 397.83 384.19 381.74 364.95 358.11C355.54 346.57 332.03 326.24 307.47 342.44C312.98 364.28 335.01 399.92 335.01 451.65Z" id="e1r2JObnNo"></path><path d="M336.21 374.84C336.35 376.14 337.05 382.68 338.3 394.44L353.98 377.45L353.98 390.77L370.18 381.63C369.08 386.96 368.47 389.92 368.35 390.51C368.35 390.51 374.88 387.38 386.64 392.08C386.64 392.08 361.03 395.74 358.16 400.96C358.31 400.42 359.1 397.72 360.51 392.86L343.79 406.19L346.4 394.44L335.01 408.54L330.72 396.78L327.59 406.45L319.23 399.4C325.5 384.59 331.16 376.4 336.21 374.84Z" id="b3fiAraeJe"></path><path d="M355.69 284.85C355.69 284.85 302.65 303.94 309.66 265.35C318.72 256.73 341.06 267.17 355.69 284.85Z" id="aXmptqrak"></path><path d="M483.57 355.5C483.57 355.5 496.26 326.46 507.87 323.37C507.87 323.37 503.95 307.69 471.03 309.26C471.03 309.26 454.83 309.26 445.69 323.37C453.26 329.79 478.09 331.2 483.57 355.5Z" id="er7r4k9I8"></path><path d="M453.53 282.35C453.53 282.35 472.08 291.23 487.49 276.34C487.49 276.34 489.33 257.28 482.53 256.49C476.73 261.66 479.91 284.44 453.53 282.35Z" id="a1NUtWaXLA"></path><path d="M375.66 148.06C385.8 152.53 401.21 163.35 418.25 160.33C426.88 158.81 446.78 157.74 452.48 167.91C452.48 167.91 436.19 162.97 422.15 168.87C411.84 173.21 395.67 170.87 372 163.47C365.38 161.4 355.02 163.73 346.14 173.52C346.14 173.52 335.79 168.34 327.73 168.34C337.31 164.29 341.51 132.97 375.66 148.06Z" id="ksKNIUgTk"></path><path d="M122.01 399.11C132.23 481.13 160.81 524.19 209.28 555.43C231.48 569.74 272.9 587.57 312.43 587.69C346.45 587.8 382.32 584.07 445.69 560.19C445.69 560.19 302.2 649.33 185.8 553.74C145.13 520.34 101.59 462 106.97 366.86C108.69 336.44 127.79 273.04 147.13 247.6C148 247.39 152.35 246.35 160.19 244.47C127.59 290.12 114.86 341.66 122.01 399.11Z" id="b1yVLEkSZC"></path><path d="M283.52 292.7C282.34 293.09 272.94 296.22 271.76 296.62C271.76 296.62 250.59 282.9 276.1 252.72C276.13 252.7 267.06 280.55 283.52 292.7Z" id="a1prrKyezq"></path><path d="M213.75 380.58C213.75 380.59 203.56 322.74 240.8 298.05C235.39 314.56 180.05 309.15 213.75 380.58Z" id="bO8XMq0pv"></path><path d="M434.81 439.07C445.71 436.82 458.24 438.5 470.62 444.86C470.62 444.86 430.34 441.27 398.99 457.73C406.15 454 406.83 444.86 434.81 439.07Z" id="e1gatJ6pH8"></path><path d="M336.08 263.03C330.38 263.03 325.76 267.65 325.76 273.35C325.76 279.05 330.38 283.67 336.08 283.67C341.78 283.67 346.4 279.05 346.4 273.35C346.4 267.65 341.78 263.03 336.08 263.03Z" id="aIPJ8pcAI"></path><path d="M459.93 124.68C459.93 124.68 453.44 75.21 401.53 61.82C401.53 61.82 383.28 56.96 363.82 46.01C363.82 46.01 330.03 26.07 271.52 30.55C268.74 25.6 257.98 23.22 245.76 25.2C232.79 27.3 222.92 33.54 222.9 39.43C211.2 43.46 171.16 58.9 128.56 94.03C119.87 101.19 106.3 111.7 96.16 134.01C96.16 134.01 85.21 151.85 92.51 191.59C92.51 191.59 101.84 262.56 100.62 275.94C100.62 275.94 95.75 298.65 118.06 303.11C118.06 303.11 149.69 249.99 291.22 228.9C291.22 228.9 409.64 211.06 484.26 260.53C484.26 260.53 572.26 269.45 574.7 238.63C574.7 238.63 578.35 203.35 468.04 180.24C466.42 169.12 461.96 143.74 459.93 124.68Z" id="clVYiSPul"></path><path d="M339.89 193.22C339.89 193.22 407.48 182.4 495.08 201.87C495.08 201.87 542.66 216.47 563.21 239.72C563.21 239.72 576.18 216.97 474.53 190.22C474.53 190.22 380.84 172.76 298.8 193.76C298.8 193.76 208.09 214.17 163.08 258.64C198.44 245.56 212.91 213.38 339.89 193.22Z" id="a26vG39yrb"></path><path d="M395.58 73.18C395.58 73.18 372.88 64.53 349.08 53.17C349.08 53.17 288.66 32.41 216.06 58.58C216.06 58.58 190.12 67.2 159.58 87.09C157.27 94.75 154.4 106.93 152.95 123.55C150.99 147.42 152.95 181.03 163.08 226.78C153.01 213.47 142.87 162.95 142.82 124.03C142.81 116.22 143.36 108.19 147.32 95.55C142.86 98.81 138.35 102.29 133.88 106.03C133.88 106.03 103.87 133.6 103.46 151.04C103.46 151.04 110.16 211.32 111.8 241.51C116.66 237.58 127.44 230.27 140.58 230.28C128.04 238.08 122.19 243.95 111.43 259.76C110.71 265.41 110.42 276.7 118.67 280C118.67 280 198.22 192.68 358.27 178.62C358.27 178.62 430.19 176.45 456.15 182.4C456.14 182.4 450.2 151.04 449.11 133.2C438.41 121.19 446.41 89.4 395.58 73.18Z" id="b3BA8Xmq4"></path></defs><g><g><g><use xlink:href="#bXnSwpjZZ" opacity="1" fill="#040402" fill-opacity="1"></use><g><use xlink:href="#bXnSwpjZZ" opacity="1" fill-opacity="0" stroke="#000000" stroke-width="1" stroke-opacity="0"></use></g></g><g><use xlink:href="#aF857t2xV" opacity="1" fill="#bfb6a4" fill-opacity="1"></use><g><use xlink:href="#aF857t2xV" opacity="1" fill-opacity="0" stroke="#000000" stroke-width="1" stroke-opacity="0"></use></g></g><g><use xlink:href="#a2T3CLrhYl" opacity="1" fill="#bfb6a4" fill-opacity="1"></use><g><use xlink:href="#a2T3CLrhYl" opacity="1" fill-opacity="0" stroke="#000000" stroke-width="1" stroke-opacity="0"></use></g></g><g><use xlink:href="#b1OwKQ6KRF" opacity="1" fill="#040402" fill-opacity="1"></use><g><use xlink:href="#b1OwKQ6KRF" opacity="1" fill-opacity="0" stroke="#000000" stroke-width="1" stroke-opacity="0"></use></g></g><g><use xlink:href="#e1r2JObnNo" opacity="1" fill="#ffffff" fill-opacity="1"></use><g><use xlink:href="#e1r2JObnNo" opacity="1" fill-opacity="0" stroke="#000000" stroke-width="1" stroke-opacity="0"></use></g></g><g><use xlink:href="#b3fiAraeJe" opacity="1" fill="#040402" fill-opacity="1"></use><g><use xlink:href="#b3fiAraeJe" opacity="1" fill-opacity="0" stroke="#000000" stroke-width="1" stroke-opacity="0"></use></g></g><g><use xlink:href="#aXmptqrak" opacity="1" fill="#ffffff" fill-opacity="1"></use><g><use xlink:href="#aXmptqrak" opacity="1" fill-opacity="0" stroke="#000000" stroke-width="1" stroke-opacity="0"></use></g></g><g><use xlink:href="#er7r4k9I8" opacity="1" fill="#040402" fill-opacity="1"></use><g><use xlink:href="#er7r4k9I8" opacity="1" fill-opacity="0" stroke="#000000" stroke-width="1" stroke-opacity="0"></use></g></g><g><use xlink:href="#a1NUtWaXLA" opacity="1" fill="#040402" fill-opacity="1"></use><g><use xlink:href="#a1NUtWaXLA" opacity="1" fill-opacity="0" stroke="#000000" stroke-width="1" stroke-opacity="0"></use></g></g><g><use xlink:href="#ksKNIUgTk" opacity="1" fill="#a7a9ac" fill-opacity="1"></use><g><use xlink:href="#ksKNIUgTk" opacity="1" fill-opacity="0" stroke="#000000" stroke-width="1" stroke-opacity="0"></use></g></g><g><use xlink:href="#b1yVLEkSZC" opacity="1" fill="#ed1c24" fill-opacity="1"></use><g><use xlink:href="#b1yVLEkSZC" opacity="1" fill-opacity="0" stroke="#000000" stroke-width="1" stroke-opacity="0"></use></g></g><g><use xlink:href="#a1prrKyezq" opacity="1" fill="#040402" fill-opacity="1"></use><g><use xlink:href="#a1prrKyezq" opacity="1" fill-opacity="0" stroke="#000000" stroke-width="1" stroke-opacity="0"></use></g></g><g><use xlink:href="#bO8XMq0pv" opacity="1" fill="#040402" fill-opacity="1"></use><g><use xlink:href="#bO8XMq0pv" opacity="1" fill-opacity="0" stroke="#000000" stroke-width="1" stroke-opacity="0"></use></g></g><g><use xlink:href="#e1gatJ6pH8" opacity="1" fill="#040402" fill-opacity="1"></use><g><use xlink:href="#e1gatJ6pH8" opacity="1" fill-opacity="0" stroke="#000000" stroke-width="1" stroke-opacity="0"></use></g></g><g><use xlink:href="#aIPJ8pcAI" opacity="1" fill="#040402" fill-opacity="1"></use><g><use xlink:href="#aIPJ8pcAI" opacity="1" fill-opacity="0" stroke="#000000" stroke-width="1" stroke-opacity="0"></use></g></g><g><use xlink:href="#clVYiSPul" opacity="1" fill="#040402" fill-opacity="1"></use><g><use xlink:href="#clVYiSPul" opacity="1" fill-opacity="0" stroke="#000000" stroke-width="1" stroke-opacity="0"></use></g></g><g><use xlink:href="#a26vG39yrb" opacity="1" fill="#ed1c24" fill-opacity="1"></use><g><use xlink:href="#a26vG39yrb" opacity="1" fill-opacity="0" stroke="#000000" stroke-width="1" stroke-opacity="0"></use></g></g><g><use xlink:href="#b3BA8Xmq4" opacity="1" fill="#ed1c24" fill-opacity="1"></use><g><use xlink:href="#b3BA8Xmq4" opacity="1" fill-opacity="0" stroke="#000000" stroke-width="1" stroke-opacity="0"></use></g></g></g></g></svg>